<svg width="184" height="40" viewBox="0 0 184 40" fill="none" xmlns="http://www.w3.org/2000/svg">
<path d="M20 10.04C14.5 10.04 10 14.53 10 20.06C10 25.06 13.66 29.21 18.44 29.96V22.96H15.9V20.06H18.44V17.85C18.44 15.34 19.93 13.96 22.22 13.96C23.31 13.96 24.45 14.15 24.45 14.15V16.62H23.19C21.95 16.62 21.56 17.39 21.56 18.18V20.06H24.34L23.89 22.96H21.56V29.96C23.9164 29.5879 26.0622 28.3856 27.6099 26.5701C29.1576 24.7546 30.0054 22.4457 30 20.06C30 14.53 25.5 10.04 20 10.04Z" fill="#828282"/>
<path d="M75 11C75.5304 11 76.0391 11.2107 76.4142 11.5858C76.7893 11.9609 77 12.4696 77 13V27C77 27.5304 76.7893 28.0391 76.4142 28.4142C76.0391 28.7893 75.5304 29 75 29H61C60.4696 29 59.9609 28.7893 59.5858 28.4142C59.2107 28.0391 59 27.5304 59 27V13C59 12.4696 59.2107 11.9609 59.5858 11.5858C59.9609 11.2107 60.4696 11 61 11H75ZM74.5 26.5V21.2C74.5 20.3354 74.1565 19.5062 73.5452 18.8948C72.9338 18.2835 72.1046 17.94 71.24 17.94C70.39 17.94 69.4 18.46 68.92 19.24V18.13H66.13V26.5H68.92V21.57C68.92 20.8 69.54 20.17 70.31 20.17C70.6813 20.17 71.0374 20.3175 71.2999 20.5801C71.5625 20.8426 71.71 21.1987 71.71 21.57V26.5H74.5ZM62.88 16.56C63.3256 16.56 63.7529 16.383 64.0679 16.0679C64.383 15.7529 64.56 15.3256 64.56 14.88C64.56 13.95 63.81 13.19 62.88 13.19C62.4318 13.19 62.0019 13.3681 61.685 13.685C61.3681 14.0019 61.19 14.4318 61.19 14.88C61.19 15.81 61.95 16.56 62.88 16.56ZM64.27 26.5V18.13H61.5V26.5H64.27Z" fill="#828282"/>
<path d="M114 23L119.19 20L114 17V23ZM125.56 15.17C125.69 15.64 125.78 16.27 125.84 17.07C125.91 17.87 125.94 18.56 125.94 19.16L126 20C126 22.19 125.84 23.8 125.56 24.83C125.31 25.73 124.73 26.31 123.83 26.56C123.36 26.69 122.5 26.78 121.18 26.84C119.88 26.91 118.69 26.94 117.59 26.94L116 27C111.81 27 109.2 26.84 108.17 26.56C107.27 26.31 106.69 25.73 106.44 24.83C106.31 24.36 106.22 23.73 106.16 22.93C106.09 22.13 106.06 21.44 106.06 20.84L106 20C106 17.81 106.16 16.2 106.44 15.17C106.69 14.27 107.27 13.69 108.17 13.44C108.64 13.31 109.5 13.22 110.82 13.16C112.12 13.09 113.31 13.06 114.41 13.06L116 13C120.19 13 122.8 13.16 123.83 13.44C124.73 13.69 125.31 14.27 125.56 15.17Z" fill="#828282"/>
<path d="M159.8 10H168.2C171.4 10 174 12.6 174 15.8V24.2C174 25.7383 173.389 27.2135 172.301 28.3012C171.214 29.3889 169.738 30 168.2 30H159.8C156.6 30 154 27.4 154 24.2V15.8C154 14.2617 154.611 12.7865 155.699 11.6988C156.786 10.6111 158.262 10 159.8 10ZM159.6 12C158.645 12 157.73 12.3793 157.054 13.0544C156.379 13.7295 156 14.6452 156 15.6V24.4C156 26.39 157.61 28 159.6 28H168.4C169.355 28 170.27 27.6207 170.946 26.9456C171.621 26.2705 172 25.3548 172 24.4V15.6C172 13.61 170.39 12 168.4 12H159.6ZM169.25 13.5C169.582 13.5 169.899 13.6317 170.134 13.8661C170.368 14.1005 170.5 14.4185 170.5 14.75C170.5 15.0815 170.368 15.3995 170.134 15.6339C169.899 15.8683 169.582 16 169.25 16C168.918 16 168.601 15.8683 168.366 15.6339C168.132 15.3995 168 15.0815 168 14.75C168 14.4185 168.132 14.1005 168.366 13.8661C168.601 13.6317 168.918 13.5 169.25 13.5ZM164 15C165.326 15 166.598 15.5268 167.536 16.4645C168.473 17.4021 169 18.6739 169 20C169 21.3261 168.473 22.5979 167.536 23.5355C166.598 24.4732 165.326 25 164 25C162.674 25 161.402 24.4732 160.464 23.5355C159.527 22.5979 159 21.3261 159 20C159 18.6739 159.527 17.4021 160.464 16.4645C161.402 15.5268 162.674 15 164 15ZM164 17C163.204 17 162.441 17.3161 161.879 17.8787C161.316 18.4413 161 19.2044 161 20C161 20.7956 161.316 21.5587 161.879 22.1213C162.441 22.6839 163.204 23 164 23C164.796 23 165.559 22.6839 166.121 22.1213C166.684 21.5587 167 20.7956 167 20C167 19.2044 166.684 18.4413 166.121 17.8787C165.559 17.3161 164.796 17 164 17Z" fill="#828282"/>
</svg>
