<svg width="1233" height="454" viewBox="0 0 1233 454" fill="none" xmlns="http://www.w3.org/2000/svg">
<g filter="url(#filter0_d_0_10760)">
<g filter="url(#filter1_d_0_10760)">
<rect x="48" y="48" width="1141" height="346" rx="14" fill="#4880FF"/>
</g>
<mask id="mask0_0_10760" style="mask-type:luminance" maskUnits="userSpaceOnUse" x="48" y="48" width="1141" height="346">
<rect x="48" y="48" width="1141" height="346" rx="14" fill="white"/>
</mask>
<g mask="url(#mask0_0_10760)">
<rect x="547" y="-119" width="642" height="642"/>
<rect width="1100" height="1100" transform="matrix(-1 0 0 1 547 48)"/>
<g opacity="0.1">
<g opacity="0.3">
<path d="M125.181 580.815C162.853 606.115 187.44 642.402 209.027 674.444C233.53 710.731 254.783 742.108 287.955 747.184C291.038 747.684 294.206 747.85 297.373 747.85C322.96 747.85 353.381 733.119 391.97 702.076C420.89 678.772 444.977 657.633 466.23 638.907C511.07 599.374 543.491 570.827 579.33 561.589C615.918 552.101 656.091 562.089 717.933 595.962C768.44 623.676 828.699 642.735 883.123 648.228C908.46 650.808 931.463 650.309 949.716 646.647C968.969 642.818 982.471 635.911 989.722 626.007C999.64 612.441 1002.06 587.223 956.967 544.029C903.043 492.345 841.701 486.103 776.775 479.528C733.768 475.2 689.262 470.623 644.339 452.563C593.498 432.172 549.409 396.718 509.486 344.368C479.982 305.668 445.561 287.358 409.805 291.436C385.469 294.183 361.549 306.999 338.712 329.387C315.792 352.025 295.122 383.235 277.453 422.185C264.285 451.064 249.783 465.879 232.863 467.377C196.275 470.623 153.936 409.202 113.096 349.778C92.6768 320.066 71.5904 289.439 51.5042 267.467C41.086 256.065 31.5847 247.659 22.6667 242.083V245.162C50.7541 263.638 81.2585 307.915 111.013 351.193C131.516 380.988 152.769 411.865 173.188 434.336C195.025 458.305 213.694 470.04 230.113 470.04C231.113 470.04 232.113 469.957 233.113 469.874C250.949 468.292 266.202 453.062 279.703 423.267C297.289 384.567 317.709 353.606 340.462 331.218C362.882 309.163 386.302 296.596 410.055 293.933C444.81 290.021 478.565 307.998 507.486 345.949C547.658 398.715 592.165 434.336 643.339 454.893C688.595 473.12 733.268 477.614 776.441 482.025C840.95 488.6 901.876 494.758 955.217 545.859C999.056 587.889 997.056 611.858 987.721 624.592C974.053 643.151 935.047 651.058 883.373 645.815C829.282 640.322 769.357 621.346 719.1 593.798C656.674 559.592 616.002 549.605 578.663 559.259C542.241 568.664 509.653 597.377 464.563 637.159C443.31 655.885 419.307 677.024 390.386 700.245C347.547 734.7 315.125 748.849 288.288 744.771C256.2 739.944 235.28 708.983 211.027 673.113C189.274 640.904 164.604 604.451 126.515 578.817C94.9271 557.594 64.8394 546.941 36.7521 546.941C32.0014 546.941 27.3341 547.274 22.6667 547.857V550.354C54.2546 546.109 88.6762 556.346 125.181 580.815Z" fill="white"/>
<path fill-rule="evenodd" clip-rule="evenodd" d="M306.624 701.909C304.207 701.909 301.873 701.66 299.623 701.077C279.204 696 262.951 681.602 252.616 659.38C242.198 636.743 238.698 607.53 242.615 574.822C246.199 545.36 256.617 516.148 272.953 490.347C331.044 398.382 379.301 347.947 416.39 340.456C428.308 338.043 439.226 340.124 448.644 346.698C483.965 371.199 507.005 395.049 527.324 416.084L528.072 416.858L528.254 417.046C559.673 449.582 584.519 475.312 638.922 490.181C673.343 499.586 689.596 508.241 688.512 516.73C687.679 523.305 676.01 528.548 653.757 532.377C632.171 536.039 601 538.286 563.661 538.785C535.49 539.201 506.236 550.104 474.148 572.326C446.144 591.801 419.64 617.185 396.22 639.656C361.632 672.863 331.378 701.909 306.624 701.909ZM275.12 491.679C259.034 517.146 248.699 546.026 245.199 575.155C241.365 607.364 244.782 636.077 255.033 658.299C264.952 679.854 280.62 693.836 300.29 698.663C302.374 699.163 304.541 699.412 306.708 699.412C330.377 699.412 360.296 670.701 394.466 637.912L394.47 637.908C417.89 615.354 444.477 589.886 472.731 570.328C505.236 547.857 534.99 536.705 563.661 536.288C600.916 535.789 631.921 533.542 653.34 529.88C680.928 525.136 685.678 519.393 686.095 516.397C687.262 506.91 653.09 496.506 638.338 492.511C583.164 477.364 558.077 451.397 526.406 418.523L526.063 418.168C505.727 397.115 482.7 373.276 447.311 348.696C440.81 344.202 433.642 341.955 425.808 341.955C422.974 341.955 419.974 342.287 416.973 342.87C380.635 350.277 332.878 400.296 275.12 491.679Z" fill="white"/>
<path d="M1187.33 566.583C1181.42 560.424 1174.66 554.099 1167 547.774C1137.83 523.721 1100.82 503.913 1056.98 488.849C1002.22 470.04 936.631 458.555 862.037 454.726C819.364 452.563 737.519 444.989 668.426 418.44C595.665 390.559 555.326 349.362 548.659 296.014C540.908 234.259 548.492 195.975 572.579 175.418C598.916 152.947 646.589 151.948 718.266 172.589C768.023 186.904 808.279 206.545 840.617 222.358C872.538 238.005 897.792 250.322 920.295 252.486C944.715 254.816 963.801 244.912 982.137 220.361C993.806 204.714 1003.06 189.9 1011.22 176.833C1027.64 150.45 1039.56 131.392 1058.98 124.317C1079.48 116.827 1107.24 123.152 1151.91 145.457C1164.66 151.782 1176.42 158.856 1187.33 166.18V163.184C1176.75 156.11 1165.33 149.368 1153.08 143.21C1107.74 120.572 1079.4 114.247 1058.15 121.904C1037.9 129.311 1025.89 148.619 1009.14 175.418C1001.06 188.402 991.805 203.133 980.22 218.779C942.548 269.298 904.626 250.738 841.784 220.028C809.363 204.131 768.94 184.407 719.016 170.092C646.423 149.285 597.999 150.367 570.995 173.421C546.242 194.56 538.407 233.594 546.242 296.263C553.076 350.61 593.915 392.473 667.592 420.77C737.019 447.403 819.197 454.976 861.953 457.223C936.297 460.968 1001.56 472.454 1056.06 491.18C1099.57 506.16 1136.33 525.802 1165.25 549.605C1173.75 556.596 1181.08 563.587 1187.33 570.245V566.583Z" fill="white"/>
<path d="M1187.33 513.568C1169.66 500.335 1148.41 487.018 1124.32 474.451C1055.9 438.664 975.22 413.779 897.292 404.458C818.364 394.97 760.772 384.567 716.099 371.583C659.008 355.104 623.003 334.547 606 308.914C594.498 291.519 591.998 271.462 598.416 249.157C603.25 232.678 612.084 221.775 625.503 215.866C670.926 195.726 758.022 237.921 834.866 275.124C862.953 288.773 889.541 301.59 912.127 310.412C950.216 325.309 973.636 328.638 990.472 321.398C1006.72 314.407 1016.06 298.261 1028.89 275.873C1036.64 262.39 1045.4 247.16 1057.73 230.348C1070.9 212.371 1087.57 202.966 1107.32 202.384C1134.33 201.635 1163.58 217.531 1187.33 235.008V231.929C1150.41 205.047 1123.82 199.471 1107.32 199.887C1086.82 200.469 1069.48 210.207 1055.81 228.85C1043.4 245.745 1034.64 261.142 1026.81 274.624C1001.64 318.318 990.138 338.293 913.044 308.081C890.541 299.259 864.037 286.442 835.95 272.877C758.605 235.425 670.926 192.979 624.503 213.619C610.501 219.778 600.916 231.596 595.999 248.574C589.331 271.545 591.915 292.352 603.833 310.412C621.252 336.462 657.674 357.351 715.432 373.997C760.272 386.98 818.03 397.383 897.042 406.871C974.636 416.193 1054.98 440.994 1123.16 476.615C1147.58 489.432 1169.41 503.164 1187.33 516.813V513.568Z" fill="white"/>
<path d="M1187.33 475.866C1139.83 434.669 1075.4 418.19 1024.89 405.373C975.886 392.889 940.548 383.901 944.382 359.599C945.465 352.524 955.3 353.024 972.553 354.522C988.555 355.853 1008.39 357.601 1027.14 351.276C1049.31 343.786 1064.57 326.891 1073.73 299.592C1080.15 280.45 1090.4 269.464 1104.07 267.134C1129.08 262.806 1161.91 287.108 1187.42 311.244V307.748C1186.75 307.166 1186.17 306.5 1185.5 305.917C1151.83 274.957 1124.32 261.058 1103.65 264.637C1088.99 267.134 1078.15 278.619 1071.4 298.76C1051.23 358.766 1004.06 354.688 972.803 352.025C955.8 350.527 943.465 349.528 941.965 359.266C940.048 371.583 946.799 381.071 963.468 388.978C978.303 396.052 999.64 401.545 1024.31 407.787C1075.23 420.77 1140.16 437.332 1187.42 479.278V475.866H1187.33Z" fill="white"/>
<path d="M1187.33 453.728C1171.16 443.574 1153.41 429.176 1138.16 413.696C1115.32 390.476 1101.74 369.003 1099.99 353.107C1099.07 344.535 1101.65 337.71 1107.82 332.883C1129.49 315.905 1164.83 344.202 1187.33 366.756V363.177C1182.67 358.6 1177.58 353.856 1172.25 349.362C1159.83 338.958 1148.33 331.801 1138.24 328.139C1125.41 323.478 1114.57 324.394 1106.24 330.969C1099.4 336.295 1096.49 343.869 1097.49 353.44C1100.99 385.898 1149.74 433.42 1187.33 456.724V453.728Z" fill="white"/>
<path fill-rule="evenodd" clip-rule="evenodd" d="M901.901 353.853C902.189 354.057 902.349 354.171 902.376 354.189C912.294 361.596 915.711 367.672 912.794 372.332C909.46 377.243 898.709 379.157 884.54 379.157C865.121 379.157 839.117 375.578 816.28 371.001C760.689 359.931 707.681 341.122 674.51 320.732C637.171 297.761 624.503 272.877 637.921 248.741C641.505 242.249 647.506 238.088 655.674 236.257C682.011 230.348 731.602 248.491 802.945 290.021C853.082 319.147 896.881 350.284 901.901 353.853ZM879.789 376.494C902.876 377.076 909.044 373.165 910.627 370.834C913.294 366.756 906.793 360.681 900.876 356.27C898.709 354.688 735.352 237.672 666.259 237.672C662.592 237.672 659.258 238.005 656.174 238.67C648.756 240.335 643.339 244.08 640.088 249.906C633.421 261.891 633.504 274.042 640.422 286.11C646.673 297.095 658.591 307.998 675.76 318.568C708.682 338.792 761.356 357.518 816.697 368.504C840.45 373.248 862.87 376.077 879.789 376.494Z" fill="white"/>
<path fill-rule="evenodd" clip-rule="evenodd" d="M815.138 332.784C815.741 333.157 816.076 333.364 816.113 333.382C816.184 333.439 816.264 333.501 816.351 333.57C817.79 334.702 821.177 337.367 819.447 339.957C818.364 341.622 815.03 342.204 810.529 342.204C798.194 342.204 777.275 337.377 771.94 336.129C744.186 329.471 718.433 319.9 703.097 310.495C687.678 301.007 682.344 291.769 687.178 283.03C688.345 280.95 690.345 279.535 693.013 278.869C703.847 276.039 727.851 284.445 764.439 303.67C788.505 316.315 810.334 329.813 815.138 332.784ZM772.441 333.715C800.778 340.456 815.947 340.623 817.364 338.542C817.447 338.376 817.28 337.377 814.613 335.463C812.28 333.965 727.101 280.866 697.68 280.866C696.096 280.866 694.763 281.033 693.513 281.366C691.429 281.865 690.095 282.864 689.262 284.279C685.178 291.603 690.179 299.675 704.264 308.331C719.35 317.652 744.853 327.14 772.441 333.715Z" fill="white"/>
<path d="M114.347 541.948C145.851 554.848 175.939 567.249 196.275 567.249C201.776 567.249 206.527 566.333 210.444 564.336C215.945 561.506 219.445 556.429 220.945 549.355C224.529 532.71 206.777 516.647 179.856 492.345C153.186 468.292 116.68 435.418 84.4257 386.148C62.5893 352.774 41.9197 331.302 22.8336 321.73V324.477C41.2529 334.048 61.1724 355.021 82.3421 387.479C114.847 437.082 151.435 470.04 178.189 494.176C204.443 517.895 221.862 533.542 218.528 548.772C217.111 555.181 214.111 559.509 209.277 562.005C192.024 571.077 154.769 555.763 115.347 539.534C89.3431 528.881 62.4226 517.812 39.0859 512.819C33.2517 511.57 27.751 510.738 22.7502 510.322V512.819C27.5843 513.235 32.9184 513.984 38.5858 515.232C61.6725 520.309 88.4263 531.295 114.347 541.948Z" fill="white"/>
<path d="M104.095 246.743C122.848 281.199 142.934 316.654 162.52 342.537C184.106 370.917 202.859 384.733 219.945 384.733C220.112 384.733 220.278 384.733 220.445 384.733C237.447 384.483 252.45 370.834 266.285 343.203C295.372 285.194 329.794 249.74 365.882 240.834C390.553 234.759 415.89 240.751 441.143 258.811C460.563 272.71 474.398 277.288 483.233 272.877C496.318 266.385 497.068 242.166 497.901 214.202C498.818 183.491 499.818 148.619 518.238 132.64C526.822 125.233 538.324 122.486 553.409 124.151C592.915 128.645 630.504 122.653 662.091 107.006C692.096 92.1086 715.349 69.3877 729.268 41.2572C742.52 14.5415 746.354 -15.5865 740.519 -45.7145C738.102 -58.2817 734.018 -70.5992 728.434 -82.6671H725.601C745.103 -41.5532 746.187 1.72459 727.101 40.1752C713.432 67.8064 690.596 90.1111 661.091 104.759C629.92 120.239 592.748 126.065 553.743 121.654C538.157 119.906 525.655 122.902 516.654 130.726C497.401 147.371 496.401 182.826 495.401 214.035C494.651 240.085 493.901 264.72 482.149 270.546C474.148 274.541 461.229 269.964 442.56 256.647C416.64 238.171 390.636 232.012 365.216 238.254C328.377 247.409 293.372 283.28 264.035 341.955C250.616 368.67 236.364 381.82 220.445 382.07C220.278 382.07 220.112 382.07 219.945 382.07C183.69 382.07 143.934 314.573 106.262 245.329C83.1754 202.883 55.0881 173.754 22.6667 158.274V161.02C54.2546 176.667 81.5918 205.297 104.095 246.743Z" fill="white"/>
<path d="M135.516 139.881C149.935 139.881 162.603 137.8 173.022 133.555C196.775 123.901 208.61 104.176 208.193 74.7142C207.777 45.8346 215.528 24.3622 231.863 9.13174C272.119 -28.6531 358.798 -22.1614 450.645 -15.1704C464.147 -14.1717 478.149 -13.0897 491.901 -12.1742C505.319 -11.2588 517.654 -10.8426 528.989 -10.8426C580.747 -10.8426 610.084 -20.0808 616.502 -38.4738C621.002 -51.4572 613.501 -67.187 601.5 -82.5006H598.249C610.584 -67.2702 618.419 -51.7068 614.168 -39.2229C606.834 -18.0833 565.828 -9.76067 492.151 -14.5878C478.399 -15.5033 464.397 -16.5852 450.895 -17.584C358.548 -24.575 271.286 -31.1499 230.196 7.38399C213.361 23.197 205.36 45.2521 205.776 74.8807C206.193 103.178 194.858 122.237 172.188 131.391C143.017 143.21 95.5939 137.8 41.9196 116.577C35.502 114.08 29.1677 111.334 22.8335 108.504V111.251C28.8344 113.997 34.9186 116.577 41.0028 118.908C76.0911 132.723 108.762 139.881 135.516 139.881Z" fill="white"/>
<path d="M87.7594 60.649C117.764 58.818 143.184 43.0882 163.437 13.8757L166.771 9.04852C191.358 -26.406 203.693 -44.2164 221.945 -51.6236C240.198 -59.0308 264.951 -56.3675 314.292 -50.9578C320.293 -50.292 326.71 -49.6262 333.461 -48.8771C391.886 -42.5519 434.226 -40.4713 462.896 -42.4687C490.484 -44.3829 506.153 -49.9591 512.153 -60.0295C515.821 -66.1882 515.654 -73.6786 512.653 -82.5006H510.07C513.07 -74.0115 513.404 -66.9373 509.986 -61.2779C504.486 -52.0397 489.067 -46.7132 462.73 -44.8823C434.226 -42.968 392.053 -45.0487 333.711 -51.3739C326.96 -52.123 320.543 -52.7888 314.542 -53.4546C264.785 -58.9475 239.864 -61.694 220.945 -53.9539C202.026 -46.2139 189.524 -28.237 164.687 7.63367L161.353 12.4608C141.517 41.0075 116.764 56.4044 87.5927 58.1522C72.5906 59.0677 50.8374 56.4876 22.6667 43.3378V46.0843C47.4203 57.4864 67.2565 60.8154 82.0086 60.8154C84.0089 60.8154 85.9258 60.7322 87.7594 60.649Z" fill="white"/>
<path d="M635.755 -21.1627C619.169 11.3789 546.158 6.96786 545.325 6.88464C504.402 6.88464 466.397 3.9717 432.892 1.30846C383.052 -2.60319 339.962 -5.93225 308.124 2.30717C291.289 6.63496 278.203 14.0421 268.202 24.8616C257.367 36.5133 250.033 52.2431 245.699 72.8C231.28 141.545 193.525 149.785 163.104 156.359C144.768 160.354 128.932 163.767 123.681 180.079C118.931 194.977 124.432 224.605 137.85 255.565C152.185 288.773 171.688 314.49 190.024 324.311C195.942 327.473 201.859 329.054 207.443 329.054C218.112 329.054 228.196 323.395 237.031 312.326C250.45 295.514 261.368 277.204 271.953 259.477C291.705 226.353 308.708 197.806 335.128 191.398C351.381 187.486 370.3 192.313 392.803 206.379C422.641 224.938 443.31 230.764 456.062 224.189C471.898 216.033 473.481 190.815 475.148 164.016C477.399 128.062 479.732 90.8602 516.738 92.5247C525.239 92.8576 533.407 93.1073 541.324 93.1073C621.336 93.1073 673.26 74.2149 695.68 36.7629C713.349 7.38399 708.848 -28.0705 702.014 -52.5391C698.764 -64.274 694.68 -74.5941 691.096 -82.5839H688.345C692.013 -74.5941 696.263 -63.8579 699.597 -51.7901C711.682 -8.26259 702.931 19.7015 693.513 35.5145C669.343 75.7962 609.834 94.1892 516.821 90.1111C499.068 89.3621 487.233 96.8525 480.649 113.082C474.898 127.147 473.731 145.873 472.648 164.016C471.064 190.066 469.481 214.618 454.895 222.108C442.977 228.267 423.141 222.441 394.053 204.381C370.883 189.983 351.381 184.989 334.462 189.151C307.041 195.809 289.705 224.772 269.702 258.395C259.201 276.039 248.283 294.266 234.947 310.911C221.945 327.14 207.193 330.885 191.024 322.23C173.188 312.659 154.019 287.441 139.934 254.733C127.015 224.772 121.348 195.143 125.848 180.994C130.682 166.014 145.101 162.851 163.437 158.939C178.773 155.61 196.108 151.865 211.611 140.047C229.53 126.398 241.448 104.593 247.949 73.3826C256.034 34.6823 274.703 13.5428 308.541 4.80397C322.71 1.14201 339.296 -0.189621 357.715 -0.189621C380.051 -0.189621 405.305 1.80782 432.476 3.88848C466.064 6.46851 504.069 9.46465 544.992 9.46465C544.992 9.46465 544.992 9.46465 545.075 9.46465C545.242 9.46465 564.078 10.7131 584.664 7.7169C612.668 3.72202 630.504 -5.59934 637.838 -19.9143C645.756 -35.4777 640.672 -56.4507 622.669 -82.5006H619.669C638.005 -56.7004 643.339 -36.1435 635.755 -21.1627Z" fill="white"/>
<path d="M642.089 9.04853C628.42 26.11 587.081 33.1842 522.655 29.5222C473.731 26.7758 428.391 18.7028 427.975 18.6196C427.725 18.5363 400.054 13.626 368.883 19.7015C350.464 23.197 334.461 29.7719 321.209 39.2598C304.624 51.0779 292.372 67.3903 284.871 87.6976C270.369 127.064 254.117 153.946 235.114 169.925C218.611 183.824 202.526 187.486 187.524 190.066C165.604 193.811 158.186 207.793 155.852 218.863C151.185 240.501 162.437 269.714 179.939 281.449C184.69 284.611 189.524 286.193 194.191 286.193C198.525 286.193 202.776 284.861 206.776 282.115C223.195 270.962 240.031 249.49 257.867 226.852C291.789 183.658 326.877 139.048 362.132 161.436C367.299 164.682 372.3 167.928 377.051 171.091C402.888 187.986 423.391 201.385 436.309 195.06C443.977 191.315 448.311 181.411 449.895 163.767C453.145 127.313 459.146 99.8486 477.898 84.3685C491.234 73.2994 510.236 69.2213 536.073 71.7181C608.417 78.7923 656.091 65.9755 677.844 33.7668C695.263 7.96658 692.262 -25.5737 686.678 -49.21C683.511 -62.6095 679.177 -74.4277 675.76 -82.6671H673.093C676.51 -74.5109 681.011 -62.443 684.261 -48.6274C689.679 -25.4905 692.596 7.30077 675.76 32.352C654.59 63.7283 607.667 76.1291 536.324 69.2213C509.82 66.6413 490.234 70.9691 476.315 82.4543C456.979 98.517 450.728 126.481 447.394 163.6C445.894 180.079 441.977 189.65 435.226 192.896C423.557 198.555 403.638 185.572 378.468 169.093C373.634 165.93 368.633 162.685 363.465 159.439C346.713 148.786 328.627 151.449 308.208 167.595C290.372 181.577 272.869 203.882 255.95 225.437C238.281 247.992 221.529 269.215 205.443 280.201C196.025 286.609 187.19 283.363 181.356 279.451C164.604 268.216 153.852 240.169 158.269 219.445C160.52 209.125 167.437 196.059 187.94 192.563C203.276 189.9 219.695 186.155 236.697 171.84C256.033 155.527 272.536 128.312 287.205 88.5298C294.539 68.6387 306.457 52.7424 322.543 41.2572C335.461 32.019 351.214 25.6106 369.216 22.1151C380.885 19.868 392.053 19.1189 401.471 19.1189C416.806 19.1189 427.308 21.0331 427.475 21.0331C427.891 21.1164 473.398 29.1893 522.488 31.9358C588.664 35.681 629.587 28.5235 644.006 10.5466C658.258 -7.18063 661.591 -30.9834 653.59 -58.5314C650.84 -67.936 647.256 -76.2586 644.089 -82.6671H641.255C644.506 -76.3419 648.34 -67.6863 651.173 -57.8656C656.591 -39.1396 659.424 -12.5071 642.089 9.04853Z" fill="white"/>
<path fill-rule="evenodd" clip-rule="evenodd" d="M375.384 42.0062C384.302 37.6784 394.22 36.763 403.388 39.5094C412.306 42.1727 419.057 47.7489 423.391 56.0715C436.393 81.1227 424.891 125.15 416.89 149.119C414.806 155.444 412.223 158.773 408.805 159.522C408.305 159.605 407.805 159.689 407.305 159.689C401.753 159.689 395.377 153.189 387.44 145.097L387.302 144.957C379.718 137.217 371.133 128.479 360.799 122.32C343.546 112 335.045 100.431 335.545 87.7808C336.462 65.7258 365.383 46.9166 375.384 42.0062ZM408.305 157.108C410.722 156.526 412.806 153.696 414.556 148.37C432.892 93.2738 426.558 67.64 421.141 57.3199C417.14 49.6631 410.889 44.503 402.638 42.0062C399.387 41.0075 396.054 40.5081 392.637 40.5081C387.136 40.5081 381.635 41.7565 376.468 44.2533C366.799 48.9973 338.879 67.0574 338.045 87.864C337.545 99.5157 345.713 110.418 362.132 120.156C372.618 126.34 381.632 135.546 388.93 143L389.136 143.21L389.231 143.306C397.025 151.255 403.74 158.103 408.305 157.108Z" fill="white"/>
<path fill-rule="evenodd" clip-rule="evenodd" d="M379.885 80.6233C382.802 79.2085 386.052 78.8756 389.053 79.7911C392.053 80.7066 394.303 82.5375 395.72 85.3672C399.887 93.357 396.304 107.089 393.803 114.58C393.387 115.995 392.553 117.909 390.719 118.325C390.469 118.408 390.303 118.408 390.053 118.408C387.989 118.408 386.007 116.367 383.378 113.659L383.302 113.581C381.051 111.251 378.468 108.587 375.384 106.756C369.8 103.427 367.049 99.599 367.216 95.3544C367.529 87.4 378.305 81.4916 379.73 80.7104C379.826 80.6579 379.879 80.6286 379.885 80.6233ZM390.219 115.828C390.469 115.828 390.97 115.162 391.47 113.747C393.303 108.005 397.387 93.8563 393.637 86.4492C392.47 84.2853 390.803 82.8704 388.469 82.2046C387.552 81.955 386.552 81.7885 385.635 81.7885C384.052 81.7885 382.552 82.1214 381.051 82.8704C378.801 84.0356 370.05 89.4453 369.8 95.5209C369.633 98.6835 371.967 101.763 376.717 104.593C380.051 106.59 382.885 109.503 385.135 111.833C385.249 111.946 385.364 112.061 385.48 112.178C387.252 113.952 389.359 116.062 390.219 115.828Z" fill="white"/>
<path d="M1187.33 110.418C1141.24 77.6272 1085.74 50.3289 1041.73 65.6425C1009.89 76.7117 987.805 109.004 976.22 161.603C970.886 185.905 957.55 201.219 936.631 207.128C897.458 218.28 834.783 192.646 791.027 147.454C755.938 111.334 741.853 71.6349 752.354 38.5939C762.106 7.96657 764.856 -25.324 760.606 -60.1959C759.689 -67.6031 758.439 -75.0103 756.938 -82.5006H754.355C755.938 -74.8438 757.188 -67.3534 758.105 -59.863C762.356 -25.324 759.605 7.63367 750.021 37.9281C739.186 71.8845 753.521 112.416 789.276 149.285C810.113 170.758 836.283 188.818 863.037 200.137C882.04 208.21 900.376 212.288 916.545 212.288C924.046 212.288 931.047 211.372 937.381 209.624C958.884 203.549 973.219 187.153 978.72 162.185C990.138 110.502 1011.56 78.8755 1042.56 68.0561C1086.07 52.9089 1141.49 80.7065 1187.33 113.581V110.418Z" fill="white"/>
<path d="M1187.33 45.585C1153.33 16.5389 1099.99 -9.17809 1056.65 -0.439301C1029.73 4.97042 1009.22 22.8641 995.806 52.576C977.22 93.6899 953.633 122.486 925.629 138.299C895.625 155.194 868.954 152.365 851.869 147.038C831.199 140.546 813.363 126.897 801.612 108.587C789.443 89.695 784.942 67.3903 789.026 45.8346C797.444 1.05878 800.695 -42.0526 798.611 -82.5839H796.111C798.111 -42.3022 794.944 0.725876 786.609 45.3353C782.442 67.5568 787.026 90.4441 799.528 109.836C811.613 128.645 829.949 142.627 851.202 149.285C860.12 152.115 869.288 153.447 878.456 153.447C894.875 153.447 911.461 149.036 926.879 140.38C955.383 124.317 979.304 95.1047 998.14 53.4915C1011.22 24.5287 1031.06 7.21754 1057.15 1.89104C1078.32 -2.35351 1103.74 1.47491 1130.66 13.1266C1150.83 21.8654 1171.16 34.6823 1187.33 48.8308V45.585Z" fill="white"/>
<path d="M1187.33 -3.51869C1180.5 -2.9361 1172.91 -2.9361 1164.83 -3.68514C1136.41 -6.34839 1102.07 -17.3343 1070.57 -33.9796C1034.06 -53.2881 1003.56 -24.4918 968.302 8.79884C941.465 34.1829 911.044 62.8961 873.372 73.2994C860.12 76.9613 849.869 75.0471 842.784 67.8064C818.697 42.9217 834.783 -38.557 845.785 -82.4174H843.201C839.867 -69.018 836.033 -52.2894 833.033 -34.8119C823.781 19.535 826.449 54.6566 840.951 69.6374C846.201 75.0471 852.952 77.7104 861.12 77.7104C865.121 77.7104 869.371 77.0446 874.039 75.7962C912.211 65.3096 942.965 36.3468 969.969 10.713C1004.56 -21.9117 1034.39 -50.1255 1069.32 -31.6493C1101.49 -14.5878 1135.33 -3.76836 1164.5 -1.10512C1172.66 -0.356079 1180.33 -0.27285 1187.25 -0.855438V-3.51869H1187.33Z" fill="white"/>
<path fill-rule="evenodd" clip-rule="evenodd" d="M671.926 135.636C671.26 128.978 680.344 121.155 698.847 112.249C711.015 106.424 725.434 108.255 735.602 116.993C743.603 123.901 752.271 133.722 747.937 141.878C744.603 148.203 734.019 151.532 719.933 151.532C710.515 151.532 699.514 150.034 688.012 146.955C677.594 144.208 672.343 140.463 671.926 135.636ZM688.595 144.541C715.182 151.699 740.769 149.951 745.687 140.713C748.521 135.47 744.437 127.896 733.935 118.908C728.101 113.997 720.85 111.417 713.516 111.417C708.848 111.417 704.181 112.416 699.847 114.497C682.928 122.653 673.843 130.06 674.343 135.386C674.677 138.965 679.594 142.128 688.595 144.541Z" fill="white"/>
</g>
<g opacity="0.21">
<path d="M124.22 579.755C161.876 605.038 186.453 641.299 208.03 673.318C232.523 709.579 253.767 740.933 286.924 746.006C290.006 746.505 293.172 746.671 296.338 746.671C321.914 746.671 352.322 731.951 390.894 700.929C419.803 677.642 443.879 656.518 465.123 637.806C509.944 598.301 542.351 569.775 578.174 560.544C614.747 551.062 654.902 561.043 716.718 594.891C767.204 622.586 827.436 641.631 881.838 647.12C907.164 649.698 930.157 649.199 948.402 645.54C967.646 641.714 981.143 634.812 988.391 624.915C998.304 611.358 1000.72 586.159 955.65 542.995C901.749 491.349 840.433 485.111 775.535 478.541C732.547 474.216 688.06 469.642 643.156 451.595C592.337 431.219 548.266 395.79 508.361 343.478C478.869 304.805 444.462 286.509 408.723 290.584C384.396 293.328 360.486 306.136 337.66 328.508C314.749 351.129 294.089 382.317 276.427 421.239C263.264 450.098 248.768 464.902 231.856 466.399C195.284 469.642 152.962 408.265 112.141 348.884C91.7297 319.193 70.6524 288.588 50.5748 266.632C40.1611 255.071 30.6638 246.672 21.833 241.099V244.177C49.9083 262.64 80.3996 306.884 110.141 350.131C130.635 379.905 151.879 410.76 172.29 433.215C194.117 457.167 212.779 468.894 229.19 468.894C230.19 468.894 231.19 468.81 232.19 468.727C250.018 467.147 265.264 451.928 278.76 422.154C296.338 383.481 316.749 352.543 339.492 330.171C361.903 308.132 385.313 295.574 409.056 292.912C443.796 289.004 477.536 306.968 506.445 344.892C546.6 397.62 591.087 433.215 642.239 453.757C687.476 471.971 732.13 476.462 775.285 480.87C839.766 487.44 900.666 493.594 953.984 544.659C997.804 586.658 995.805 610.61 986.474 623.335C972.812 641.881 933.823 649.782 882.171 644.542C828.103 639.053 768.203 620.091 717.968 592.563C655.569 558.381 614.914 548.401 577.591 558.048C541.185 567.446 508.611 596.139 463.54 635.893C442.296 654.605 418.303 675.73 389.395 698.933C346.574 733.364 314.166 747.503 287.341 743.428C255.266 738.604 234.356 707.666 210.113 671.821C188.369 639.635 163.709 603.208 125.637 577.593C94.0624 556.385 63.9876 545.74 35.9123 545.74C31.1637 545.74 26.4983 546.072 21.833 546.655V549.15C53.4073 545.074 87.7309 555.221 124.22 579.755Z" fill="white"/>
<path fill-rule="evenodd" clip-rule="evenodd" d="M305.585 700.68C303.169 700.68 300.837 700.43 298.587 699.848C278.176 694.858 261.931 680.387 251.601 658.181C241.187 635.56 237.688 606.368 241.604 573.684C245.186 544.243 255.6 515.051 271.928 489.269C329.995 397.37 378.231 346.971 415.304 339.486C427.217 337.074 438.131 339.153 447.545 345.723C482.851 370.206 505.88 394.04 526.191 415.059L526.939 415.833L527.12 416.021C558.525 448.534 583.361 474.245 637.741 489.103C672.147 498.501 688.393 507.15 687.31 515.633C686.477 522.204 674.813 527.443 652.57 531.269C630.992 534.928 599.835 537.174 562.512 537.673C534.353 538.088 505.112 548.983 473.038 571.189C445.046 590.65 418.553 616.016 395.143 638.471C360.57 671.654 330.328 700.68 305.585 700.68ZM274.094 490.6C258.016 516.049 247.685 544.908 244.186 574.017C240.354 606.202 243.77 634.978 254.017 657.183C263.931 678.724 279.593 692.696 299.254 697.519C301.337 698.018 303.503 698.268 305.669 698.268C329.328 698.268 359.235 669.577 393.39 636.811L393.394 636.808C416.804 614.269 443.379 588.82 471.621 569.276C504.112 546.821 533.854 535.677 562.512 535.261C599.751 534.762 630.743 532.516 652.153 528.857C679.729 524.116 684.477 518.378 684.894 515.384C686.06 505.903 651.903 495.507 637.157 491.515C582.006 476.379 556.93 450.431 525.273 417.58L524.93 417.225C504.603 396.187 481.586 372.365 446.212 347.803C439.714 343.312 432.549 341.066 424.718 341.066C421.885 341.066 418.886 341.399 415.887 341.981C379.564 349.3 331.828 399.283 274.094 490.6Z" fill="white"/>
<path d="M1056.87 121.173C1036.63 128.575 1024.63 147.869 1007.89 174.649C999.804 187.623 990.557 202.344 978.977 217.979C941.321 268.461 903.415 249.915 840.599 219.227C808.192 203.342 767.787 183.631 717.884 169.326C645.322 148.535 596.919 149.616 569.927 172.653C545.184 193.777 537.353 232.783 545.184 295.407C552.015 349.715 592.837 391.548 666.482 419.825C735.879 446.439 818.023 454.007 860.76 456.252C935.073 459.995 1000.3 471.472 1054.79 490.184C1098.28 505.154 1135.02 524.782 1163.92 548.567C1173.42 556.385 1181.5 564.12 1188.25 571.605V567.945C1181.84 561.126 1174.42 553.973 1165.76 546.821C1136.6 522.786 1099.61 502.992 1055.79 487.939C1001.05 469.143 935.489 457.666 860.927 453.84C818.273 451.678 736.463 444.11 667.399 417.58C594.67 389.719 554.348 348.551 547.683 295.241C539.935 233.531 547.516 195.274 571.593 174.732C597.919 152.277 645.572 151.279 717.218 171.905C766.954 186.209 807.192 205.837 839.516 221.638C871.424 237.274 896.667 249.582 919.16 251.745C943.57 254.073 962.648 244.177 980.976 219.642C992.639 204.007 1001.89 189.203 1010.05 176.146C1026.46 149.782 1038.38 130.737 1057.79 123.668C1078.28 116.183 1106.02 122.503 1150.68 144.792C1164.26 151.612 1176.75 159.097 1188.25 166.998V163.837C1177.09 156.186 1164.92 149.034 1151.76 142.463C1106.36 119.842 1078.03 113.438 1056.87 121.173Z" fill="white"/>
<path d="M1105.94 199.017C1085.45 199.599 1068.12 209.33 1054.46 227.959C1042.04 244.842 1033.29 260.228 1025.46 273.701C1000.3 317.363 988.807 337.324 911.746 307.134C889.252 298.318 862.76 285.511 834.684 271.954C757.373 234.529 669.732 192.114 623.328 212.74C609.332 218.894 599.751 230.704 594.836 247.67C588.171 270.624 590.754 291.415 602.667 309.463C619.996 335.66 656.485 356.452 714.136 373.085C758.956 386.059 816.69 396.455 895.667 405.936C973.228 415.251 1053.54 440.035 1121.69 475.63C1147.1 488.937 1169.67 503.242 1188 517.463V514.136C1169.92 500.331 1147.93 486.525 1122.77 473.385C1054.37 437.623 973.728 412.756 895.834 403.441C816.94 393.96 759.373 383.564 714.719 370.59C657.652 354.123 621.662 333.581 604.667 307.966C593.17 290.584 590.671 270.54 597.086 248.252C601.918 231.785 610.748 220.89 624.161 214.985C669.565 194.859 756.623 237.024 833.435 274.2C861.51 287.839 888.086 300.647 910.663 309.463C948.735 324.349 972.145 327.676 988.974 320.441C1005.22 313.455 1014.55 297.32 1027.38 274.948C1035.13 261.475 1043.87 246.256 1056.2 229.456C1069.37 211.492 1086.03 202.094 1105.77 201.512C1133.6 200.763 1163.84 217.73 1187.92 235.777V232.616C1150.09 204.34 1122.77 198.518 1105.94 199.017Z" fill="white"/>
<path d="M1102.19 263.721C1087.53 266.216 1076.7 277.693 1069.95 297.819C1049.79 357.783 1002.64 353.707 971.396 351.046C954.4 349.549 942.071 348.551 940.571 358.282C938.655 370.59 945.403 380.071 962.065 387.972C976.894 395.041 998.221 400.53 1022.88 406.768C1074.53 419.908 1140.68 436.791 1188.08 480.121V476.711C1140.43 434.13 1074.78 417.413 1023.46 404.356C974.478 391.881 939.155 382.899 942.987 358.614C944.07 351.545 953.901 352.044 971.146 353.541C987.141 354.872 1006.97 356.618 1025.71 350.298C1047.87 342.813 1063.12 325.93 1072.28 298.651C1078.7 279.523 1088.95 268.544 1102.61 266.216C1128.35 261.725 1162.26 287.59 1188.17 312.373V308.88C1186.83 307.55 1185.42 306.302 1184 304.972C1150.34 274.034 1122.85 260.145 1102.19 263.721Z" fill="white"/>
<path d="M1136.93 327.26C1124.1 322.603 1113.27 323.518 1104.94 330.088C1098.11 335.411 1095.19 342.979 1096.19 352.543C1099.78 385.644 1150.34 434.379 1188.17 457.084V454.09C1171.42 443.86 1152.76 428.89 1136.77 412.673C1113.94 389.469 1100.36 368.012 1098.61 352.127C1097.69 343.561 1100.28 336.741 1106.44 331.918C1128.85 314.369 1165.76 345.141 1188.17 367.929V364.353C1183 359.113 1177.09 353.624 1170.84 348.385C1158.43 338.072 1147.01 330.92 1136.93 327.26Z" fill="white"/>
<path fill-rule="evenodd" clip-rule="evenodd" d="M900.608 352.955C900.895 353.16 901.055 353.274 901.082 353.292C910.996 360.693 914.495 366.765 911.496 371.339C908.164 376.246 897.417 378.159 883.254 378.159C863.843 378.159 837.85 374.582 815.023 370.008C759.456 358.947 706.471 340.151 673.314 319.775C635.991 296.821 623.328 271.954 636.741 247.836C640.323 241.349 646.322 237.191 654.486 235.361C680.812 229.539 730.381 247.586 801.694 289.17C851.809 318.275 895.589 349.389 900.608 352.955ZM878.505 375.497C901.582 376.079 907.747 372.17 909.33 369.842C912.079 365.85 905.581 359.695 899.583 355.288C897.417 353.707 734.13 236.775 665.066 236.775C661.401 236.775 658.068 237.107 654.986 237.773C647.571 239.436 642.156 243.179 638.907 249C632.242 260.976 632.326 273.119 639.24 285.178C645.489 296.156 657.402 307.051 674.564 317.613C707.471 337.823 760.122 356.535 815.44 367.513C839.183 372.254 861.594 375.081 878.505 375.497Z" fill="white"/>
<path fill-rule="evenodd" clip-rule="evenodd" d="M813.882 331.902C814.485 332.274 814.82 332.481 814.857 332.5C816.107 333.415 820.022 336.326 818.106 339.07C817.023 340.733 813.691 341.316 809.192 341.316C796.862 341.316 775.951 336.492 770.619 335.244C742.877 328.591 717.135 319.027 701.806 309.629C686.394 300.148 681.062 290.916 685.894 282.184C687.06 280.105 689.059 278.691 691.725 278.026C702.556 275.281 726.632 283.598 763.205 302.809C787.26 315.444 809.08 328.933 813.882 331.902ZM771.203 332.749C799.528 339.486 814.69 339.652 816.107 337.573C816.273 337.49 816.023 336.492 813.357 334.496C811.025 332.999 725.882 279.938 696.474 279.938C694.891 279.938 693.558 280.105 692.309 280.437C690.226 280.936 688.893 281.934 688.06 283.348C683.978 290.667 688.976 298.734 703.055 307.383C718.134 316.698 743.627 326.179 771.203 332.749Z" fill="white"/>
<path d="M113.39 540.916C144.881 553.807 174.956 566.199 195.284 566.199C200.782 566.199 205.531 565.284 209.446 563.288C214.945 560.46 218.444 555.387 219.943 548.318C223.525 531.685 205.781 515.633 178.872 491.349C152.213 467.313 115.723 434.462 83.4821 385.228C61.5717 351.878 40.9943 330.421 21.8331 320.856V323.601C40.2445 333.165 60.1555 354.123 81.3161 386.558C113.807 436.126 150.38 469.06 177.122 493.178C203.365 516.881 220.776 532.516 217.444 547.736C216.028 554.14 213.029 558.464 208.197 560.959C190.951 570.025 153.712 554.722 114.307 538.504C88.3141 527.859 61.4051 516.798 38.0784 511.808C32.2468 510.56 26.7483 509.729 21.7498 509.313V511.808C26.5817 512.224 31.9135 512.972 37.5786 514.22C60.7386 519.293 87.5643 530.271 113.39 540.916Z" fill="white"/>
<path d="M103.226 245.923C121.971 280.354 142.049 315.783 161.626 341.648C183.204 370.008 201.948 383.814 219.027 383.814C219.193 383.814 219.36 383.814 219.527 383.814C236.522 383.564 251.517 369.925 265.347 342.314C294.422 284.346 328.829 248.917 364.902 240.018C389.561 233.947 414.888 239.935 440.13 257.982C459.541 271.871 473.371 276.445 482.202 272.038C495.281 265.55 496.031 241.349 496.864 213.405C497.781 182.716 498.78 147.869 517.192 131.901C525.773 124.499 537.269 121.755 552.348 123.418C591.837 127.909 629.41 121.921 660.984 106.286C690.975 91.399 714.219 68.6944 728.131 40.584C741.378 13.8874 745.21 -16.219 739.378 -46.3254C736.962 -58.8836 732.88 -71.1923 727.298 -83.2515H724.466C743.96 -42.167 745.043 1.07974 725.965 39.5029C712.303 67.1143 689.476 89.403 659.984 104.04C628.826 119.509 591.67 125.331 552.682 120.923C537.103 119.177 524.606 122.171 515.609 129.988C496.364 146.622 495.365 182.051 494.365 213.239C493.615 239.27 492.865 263.887 481.119 269.709C473.121 273.701 460.208 269.127 441.547 255.82C415.637 237.357 389.645 231.203 364.235 237.44C327.412 246.588 292.422 282.433 263.097 341.066C249.685 367.763 235.439 380.903 219.527 381.152C219.36 381.152 219.193 381.152 219.027 381.152C182.787 381.152 143.048 313.704 105.392 244.509C82.3157 202.344 54.3237 173.235 21.833 157.766V160.511C53.324 175.897 80.6496 204.506 103.226 245.923Z" fill="white"/>
<path d="M134.551 139.137C148.963 139.137 161.626 137.058 172.04 132.816C195.783 123.169 207.613 103.458 207.197 74.0171C206.78 45.1582 214.528 23.7012 230.857 8.48162C271.095 -29.2762 357.737 -22.7891 449.544 -15.8031C463.04 -14.8051 477.036 -13.7239 490.782 -12.8091C504.195 -11.8943 516.525 -11.4784 527.855 -11.4784C579.59 -11.4784 608.915 -20.71 615.33 -39.0899C619.829 -52.0639 612.331 -67.7824 600.335 -83.0851H597.085C609.415 -67.8656 617.246 -52.3134 612.998 -39.8384C605.666 -18.714 564.678 -10.3973 491.032 -15.2209C477.286 -16.1358 463.29 -17.217 449.794 -18.215C357.487 -25.201 270.262 -31.7712 229.19 6.73512C212.362 22.5368 204.364 44.576 204.781 74.1835C205.197 102.46 193.867 121.505 171.207 130.654C142.049 142.464 94.6455 137.058 40.9941 115.85C34.5793 113.355 28.2478 110.611 21.9163 107.783V110.527C27.9145 113.272 33.9961 115.85 40.0777 118.179C75.2344 131.984 107.892 139.137 134.551 139.137Z" fill="white"/>
<path d="M86.8145 59.9619C116.806 58.1323 142.215 42.4137 162.46 13.2221L165.792 8.39845C190.368 -27.0306 202.698 -44.8284 220.943 -52.2302C239.188 -59.6321 263.931 -56.9707 313.25 -51.5649C319.248 -50.8996 325.663 -50.2342 332.411 -49.4857C390.894 -43.2482 433.216 -41.0859 461.791 -43.0819C489.366 -44.9947 505.029 -50.5669 511.027 -60.6301C514.692 -66.7844 514.526 -74.2695 511.527 -83.0851H508.944C511.943 -74.6021 512.276 -67.5329 508.861 -61.8776C503.362 -52.8124 487.95 -47.4065 461.624 -45.5769C433.132 -43.5809 390.978 -45.66 332.661 -51.9807C325.913 -52.7292 319.498 -53.3946 313.5 -54.0599C263.764 -59.5489 238.854 -62.2934 219.943 -54.5589C201.032 -46.8244 188.535 -28.8603 163.709 6.98461L160.377 11.8083C140.549 40.3345 115.806 55.7204 86.6479 57.4669C71.6522 58.3818 49.9084 55.8036 21.7498 42.6632V45.4077C46.4927 56.8016 66.3204 60.1283 81.0662 60.1283C83.1489 60.1283 85.065 60.0451 86.8145 59.9619Z" fill="white"/>
<path d="M634.575 -21.7912C618.08 10.7271 545.017 6.31925 544.184 6.23608C503.279 6.23608 465.29 3.32524 431.799 0.663902C381.98 -3.24494 338.909 -6.57161 307.085 1.66191C290.256 5.98659 277.177 13.3884 267.18 24.2001C256.349 35.8435 249.018 51.5621 244.686 72.1043C230.274 140.8 192.534 149.034 162.126 155.604C143.798 159.596 127.969 163.006 122.721 179.306C117.972 194.193 123.471 223.801 136.884 254.739C151.213 287.922 170.707 313.621 189.035 323.435C194.95 326.595 200.865 328.175 206.447 328.175C217.111 328.175 227.191 322.52 236.022 311.459C249.435 294.659 260.348 276.362 270.929 258.648C290.673 225.547 307.668 197.021 334.077 190.617C350.323 186.708 369.234 191.532 391.728 205.587C421.552 224.133 442.213 229.955 454.959 223.385C470.788 215.235 472.371 190.035 474.037 163.255C476.287 127.327 478.619 90.1515 515.609 91.8148C524.106 92.1475 532.271 92.397 540.185 92.397C620.162 92.397 672.064 73.5181 694.474 36.093C712.136 6.73508 707.637 -28.694 700.806 -53.1451C697.557 -64.8716 693.475 -75.1843 689.892 -83.1683H687.143C690.809 -75.1843 695.058 -64.4558 698.39 -52.3966C710.47 -8.90028 701.722 19.0438 692.308 34.8455C668.149 75.0983 608.666 93.4782 515.692 89.403C497.947 88.6545 486.117 96.1395 479.536 112.357C473.787 126.412 472.621 145.125 471.538 163.255C469.955 189.286 468.372 213.821 453.793 221.306C441.88 227.46 422.052 221.638 392.977 203.591C369.817 189.203 350.323 184.213 333.411 188.372C306.002 195.025 288.674 223.967 268.679 257.566C258.182 275.198 247.269 293.411 233.939 310.045C220.943 326.262 206.197 330.005 190.035 321.355C172.207 311.791 153.046 286.592 138.966 253.907C126.053 223.967 120.388 194.36 124.887 180.221C129.719 165.251 144.132 162.091 162.46 158.182C177.789 154.855 195.117 151.113 210.613 139.303C228.524 125.664 240.437 103.874 246.936 72.6864C255.017 34.0138 273.678 12.8894 307.502 4.15691C321.664 0.497574 338.243 -0.833099 356.654 -0.833099C378.981 -0.833099 404.224 1.16291 431.383 3.24208C464.957 5.82025 502.946 8.81426 543.851 8.81426C543.851 8.81426 543.851 8.81426 543.934 8.81426C544.101 8.81426 562.929 10.0618 583.506 7.06776C611.498 3.07574 629.326 -6.23895 636.658 -20.5437C644.572 -36.0959 639.49 -57.0539 621.495 -83.0852H618.496C636.824 -57.3866 642.156 -36.7612 634.575 -21.7912Z" fill="white"/>
<path d="M640.99 8.39843C627.327 25.4476 586.005 32.5168 521.607 28.8575C472.704 26.113 427.384 18.0458 426.967 17.9626C426.717 17.8795 399.059 12.9726 367.901 19.0438C349.489 22.5368 333.494 29.107 320.248 38.588C303.669 50.3977 291.423 66.6984 283.925 86.9912C269.429 126.329 253.184 153.192 234.189 169.16C217.694 183.049 201.615 186.708 186.619 189.286C164.709 193.029 157.294 207.001 154.962 218.062C150.296 239.686 161.543 268.877 179.038 280.604C183.787 283.764 188.619 285.344 193.284 285.344C197.616 285.344 201.865 284.014 205.864 281.269C222.276 270.125 239.104 248.668 256.933 226.046C290.84 182.883 325.913 138.305 361.153 160.677C366.318 163.921 371.317 167.164 376.065 170.324C401.891 187.207 422.385 200.597 435.298 194.276C442.963 190.534 447.295 180.637 448.878 163.006C452.127 126.579 458.125 99.1335 476.87 83.6645C490.199 72.6033 509.194 68.5281 535.02 71.0231C607.333 78.0923 654.986 65.2846 676.729 33.099C694.141 7.31727 691.142 -26.199 685.56 -49.8184C682.394 -63.2083 678.062 -75.018 674.647 -83.2515H671.981C675.396 -75.1011 679.895 -63.0419 683.144 -49.2362C688.559 -26.1158 691.475 6.65193 674.647 31.6852C653.486 63.0391 606.583 75.431 535.27 68.5281C508.777 65.9499 489.2 70.2746 475.287 81.7516C455.959 97.8029 449.711 125.747 446.378 162.839C444.879 179.306 440.963 188.871 434.215 192.114C422.552 197.77 402.641 184.795 377.481 168.328C372.65 165.168 367.651 161.925 362.486 158.681C345.741 148.036 327.662 150.697 307.252 166.831C289.423 180.803 271.928 203.092 255.016 224.632C237.355 247.171 220.61 268.378 204.531 279.356C195.117 285.76 186.286 282.517 180.454 278.608C163.709 267.38 152.962 239.353 157.378 218.644C159.627 208.332 166.542 195.274 187.036 191.781C202.365 189.12 218.777 185.378 235.772 171.073C255.1 154.772 271.595 127.577 286.258 87.8228C293.589 67.9459 305.502 52.0611 321.581 40.584C334.494 31.3525 350.239 24.9486 368.234 21.4556C379.897 19.2101 391.061 18.4616 400.475 18.4616C415.804 18.4616 426.301 20.3745 426.467 20.3745C426.884 20.4576 472.371 28.5248 521.44 31.2693C587.588 35.0118 628.493 27.8595 642.906 9.89544C657.152 -7.73595 660.484 -31.6049 652.486 -59.0499C649.737 -68.4478 646.155 -76.7645 642.989 -83.1683H640.156C643.406 -76.8476 647.238 -68.1983 650.07 -58.3846C655.485 -39.8384 658.235 -13.1418 640.99 8.39843Z" fill="white"/>
<path fill-rule="evenodd" clip-rule="evenodd" d="M374.316 41.3325C383.23 37.0079 393.144 36.093 402.308 38.8375C411.305 41.4989 418.053 47.0711 422.302 55.3878C435.298 80.421 423.802 124.416 415.804 148.368C413.721 154.689 411.139 158.016 407.723 158.764C407.223 158.847 406.723 158.931 406.223 158.931C400.673 158.931 394.3 152.435 386.366 144.35L386.229 144.21C378.648 136.475 370.067 127.743 359.737 121.589C342.491 111.276 333.994 99.7157 334.494 87.0743C335.41 65.0351 364.319 46.2394 374.316 41.3325ZM407.223 156.352C409.639 155.77 411.722 152.943 413.471 147.62C431.883 92.5634 425.551 66.948 420.053 56.6353C416.054 48.9839 409.806 43.8276 401.558 41.3325C398.309 40.3345 394.976 39.8355 391.561 39.8355C386.062 39.8355 380.564 41.083 375.399 43.578C365.735 48.3186 337.826 66.3658 336.993 87.1575C336.493 98.8009 344.657 109.696 361.069 119.426C371.551 125.606 380.561 134.805 387.856 142.254L388.062 142.464L388.156 142.56C395.947 150.503 402.659 157.346 407.223 156.352Z" fill="white"/>
<path fill-rule="evenodd" clip-rule="evenodd" d="M378.898 79.922C381.814 78.5082 385.063 78.1755 388.062 79.0903C390.978 80.0052 393.227 81.8348 394.727 84.6625C398.892 92.6465 395.31 106.369 392.81 113.854C392.394 115.268 391.561 117.181 389.728 117.597C389.478 117.68 389.311 117.68 389.062 117.68C386.999 117.68 385.017 115.64 382.39 112.934L382.313 112.856C380.064 110.527 377.481 107.866 374.399 106.036C368.817 102.71 366.068 98.884 366.235 94.6425C366.547 86.6938 377.319 80.7897 378.743 80.009C378.839 79.9566 378.892 79.9272 378.898 79.922ZM389.145 115.102C389.395 115.102 389.895 114.436 390.394 113.022C392.311 107.284 396.309 93.1455 392.561 85.7437C391.394 83.5813 389.728 82.1675 387.395 81.5022C386.479 81.2527 385.479 81.0863 384.563 81.0863C382.98 81.0863 381.48 81.419 379.981 82.1675C377.731 83.3318 368.984 88.7377 368.734 94.8089C368.567 97.9692 370.9 101.046 375.649 103.874C378.981 105.87 381.814 108.781 384.063 111.11C384.176 111.222 384.291 111.338 384.407 111.454C386.178 113.227 388.285 115.336 389.145 115.102Z" fill="white"/>
<path d="M1040.46 64.8688C1008.63 75.93 986.558 108.199 974.978 160.76C969.646 185.045 956.316 200.348 935.406 206.253C896.25 217.397 833.601 191.781 789.864 146.622C754.791 110.527 740.711 70.8568 751.208 37.8395C760.956 7.23409 763.705 -26.0327 759.456 -60.8796C758.54 -68.1983 757.29 -75.6833 755.79 -83.1683H753.208C754.791 -75.517 756.04 -68.032 756.957 -60.5469C761.205 -26.0327 758.456 6.90143 748.876 37.1742C738.045 71.1063 752.375 111.609 788.114 148.451C808.942 169.909 835.101 187.956 861.843 199.266C880.838 207.334 899.166 211.409 915.328 211.409C922.826 211.409 929.824 210.494 936.156 208.747C957.649 202.676 971.979 186.292 977.477 161.342C988.89 109.696 1010.3 78.0923 1041.29 67.2806C1085.45 51.8947 1142.01 80.8368 1188.17 114.353V111.276C1141.68 77.7596 1085.11 49.3997 1040.46 64.8688Z" fill="white"/>
<path d="M1055.37 -1.0826C1028.46 4.32324 1007.97 22.2041 994.556 51.8947C975.978 92.9792 952.401 121.755 924.409 137.557C894.417 154.44 867.758 151.612 850.68 146.289C830.019 139.802 812.191 126.163 800.444 107.866C788.281 88.9872 783.782 66.6984 787.865 45.1582C796.279 0.414413 799.445 -42.7492 797.445 -83.1683H794.946C796.945 -42.9156 793.78 0.0817337 785.449 44.6592C781.283 66.8648 785.865 89.7357 798.362 109.114C810.441 127.909 828.77 141.881 850.013 148.535C858.928 151.362 868.092 152.693 877.256 152.693C893.668 152.693 910.246 148.285 925.659 139.636C954.15 123.585 978.06 94.393 996.888 52.8096C1009.97 23.8675 1029.8 6.56876 1055.87 1.24607C1077.03 -2.99544 1102.44 0.830238 1129.35 12.4736C1150.43 21.5388 1171.75 35.1782 1188.17 50.065V46.7384C1154.26 16.9646 1099.61 -9.98146 1055.37 -1.0826Z" fill="white"/>
<path d="M1163.42 -4.40928C1135.02 -7.07062 1100.69 -18.0486 1069.2 -34.682C1032.71 -53.9768 1002.22 -25.201 966.98 8.06576C940.154 33.4317 909.746 62.1243 872.09 72.5201C858.844 76.1795 848.597 74.2666 841.516 67.0311C817.439 42.1642 833.601 -39.2562 844.598 -83.1683H842.016C838.683 -69.7785 834.851 -53.0619 831.852 -35.5969C822.604 18.7111 825.27 53.8076 839.766 68.7776C845.015 74.1835 851.763 76.8448 859.927 76.8448C863.926 76.8448 868.175 76.1794 872.84 74.9319C910.996 64.4529 941.737 35.5108 968.729 9.89543C1003.3 -22.706 1033.13 -50.8996 1068.03 -32.4365C1100.19 -15.3873 1134.02 -4.57561 1163.17 -1.91427C1172.25 -1.0826 1180.59 -1.0826 1188.17 -1.91427V-4.40928C1180.75 -3.57761 1172.42 -3.57761 1163.42 -4.40928Z" fill="white"/>
<path fill-rule="evenodd" clip-rule="evenodd" d="M670.731 134.895C670.065 128.242 679.145 120.424 697.64 111.525C709.803 105.704 724.299 107.533 734.38 116.266C742.377 123.169 751.042 132.982 746.71 141.133C743.377 147.454 732.797 150.78 718.718 150.78C709.304 150.78 698.307 149.283 686.81 146.206C676.396 143.461 671.148 139.719 670.731 134.895ZM687.476 143.794C714.052 150.947 739.628 149.2 744.543 139.968C747.293 134.646 743.294 127.161 732.797 118.179C726.965 113.272 719.717 110.694 712.386 110.694C707.721 110.694 703.055 111.692 698.723 113.771C681.811 121.921 672.731 129.323 673.23 134.646C673.564 138.222 678.479 141.382 687.476 143.794Z" fill="white"/>
</g>
</g>
</g>
</g>
<defs>
<filter id="filter0_d_0_10760" x="44" y="48" width="1149" height="354" filterUnits="userSpaceOnUse" color-interpolation-filters="sRGB">
<feFlood flood-opacity="0" result="BackgroundImageFix"/>
<feColorMatrix in="SourceAlpha" type="matrix" values="0 0 0 0 0 0 0 0 0 0 0 0 0 0 0 0 0 0 127 0" result="hardAlpha"/>
<feOffset dy="4"/>
<feGaussianBlur stdDeviation="2"/>
<feComposite in2="hardAlpha" operator="out"/>
<feColorMatrix type="matrix" values="0 0 0 0 0 0 0 0 0 0 0 0 0 0 0 0 0 0 0.25 0"/>
<feBlend mode="normal" in2="BackgroundImageFix" result="effect1_dropShadow_0_10760"/>
<feBlend mode="normal" in="SourceGraphic" in2="effect1_dropShadow_0_10760" result="shape"/>
</filter>
<filter id="filter1_d_0_10760" x="0" y="0" width="1249" height="454" filterUnits="userSpaceOnUse" color-interpolation-filters="sRGB">
<feFlood flood-opacity="0" result="BackgroundImageFix"/>
<feColorMatrix in="SourceAlpha" type="matrix" values="0 0 0 0 0 0 0 0 0 0 0 0 0 0 0 0 0 0 127 0" result="hardAlpha"/>
<feOffset dx="6" dy="6"/>
<feGaussianBlur stdDeviation="27"/>
<feColorMatrix type="matrix" values="0 0 0 0 0 0 0 0 0 0 0 0 0 0 0 0 0 0 0.05 0"/>
<feBlend mode="normal" in2="BackgroundImageFix" result="effect1_dropShadow_0_10760"/>
<feBlend mode="normal" in="SourceGraphic" in2="effect1_dropShadow_0_10760" result="shape"/>
</filter>
</defs>
</svg>
